<?xml version="1.0" standalone="no"?>
<!DOCTYPE svg PUBLIC "-//W3C//DTD SVG 20010904//EN"
 "http://www.w3.org/TR/2001/REC-SVG-20010904/DTD/svg10.dtd">
<svg version="1.0" xmlns="http://www.w3.org/2000/svg"
 width="6300.000000pt" height="4500.000000pt" viewBox="0 0 6300.000000 4500.000000"
 preserveAspectRatio="xMidYMid meet">

<g transform="translate(0.000000,4500.000000) scale(0.100000,-0.100000)"
fill="#000000" stroke="none">
<path d="M34920 37689 c-611 -61 -1180 -337 -1603 -778 -189 -198 -334 -408
-457 -663 -62 -128 -122 -295 -2196 -6070 -489 -1363 -891 -2478 -894 -2478
-3 1 -1440 1972 -3195 4382 -1754 2410 -3243 4453 -3309 4541 -195 263 -405
465 -656 632 -664 443 -1490 553 -2244 301 -674 -225 -1235 -731 -1526 -1376
-231 -512 -288 -1084 -165 -1633 62 -278 186 -574 340 -812 38 -59 5832 -8021
8472 -11641 l183 -252 -1454 -4048 c-799 -2227 -1465 -4094 -1479 -4149 -130
-506 -113 -992 54 -1483 90 -265 252 -559 429 -778 103 -128 315 -333 447
-431 418 -314 890 -489 1403 -522 86 -6 3163 -11 7610 -13 7166 -3 7469 -2
7575 15 758 125 1360 502 1774 1112 457 674 566 1546 289 2310 -48 132 -168
381 -234 485 -146 229 -370 483 -569 643 -371 299 -787 479 -1280 553 -101 15
-580 17 -5747 23 -3101 4 -5640 10 -5643 13 -3 3 1515 4239 3373 9414 1967
5476 3393 9460 3411 9530 58 226 74 361 75 629 0 176 -5 269 -17 348 -65 419
-212 793 -438 1117 -407 580 -1026 960 -1741 1066 -126 18 -459 26 -588 13z"/>
</g>
</svg>
